<svg xmlns="http://www.w3.org/2000/svg" width="444" height="502" viewBox="0 0 444 502" fill="none">
<path d="M-0.000279431 358V143.56C-0.00742877 137.181 1.6688 130.913 4.85911 125.389C8.04943 119.866 12.6409 115.281 18.1697 112.1L203.85 4.85989C209.358 1.67622 215.608 0 221.97 0C228.332 0 234.582 1.67622 240.09 4.85989L426.21 112.1C431.651 115.343 436.15 119.952 439.26 125.471C442.371 130.99 443.984 137.225 443.94 143.56V358C443.984 364.334 442.371 370.57 439.26 376.089C436.15 381.607 431.651 386.217 426.21 389.46L240.09 496.74C234.58 499.919 228.331 501.592 221.97 501.592C215.609 501.592 209.36 499.919 203.85 496.74L18.1697 389.94C12.5703 386.717 7.93354 382.057 4.73904 376.442C1.54455 370.827 -0.0916403 364.46 -0.000279431 358Z" fill="#1563FF"/>
<path d="M394.39 134.783L242.49 47.003C240.42 45.8031 238.07 45.1714 235.677 45.1719C233.284 45.1724 230.934 45.805 228.865 47.0057C226.795 48.2064 225.08 49.9326 223.892 52.0095C222.704 54.0865 222.086 56.4404 222.1 58.833V143.003L301.34 188.643C305.702 191.154 309.326 194.77 311.845 199.127C314.365 203.485 315.691 208.43 315.69 213.463V304.653L388.63 346.753C390.691 347.933 393.025 348.552 395.4 348.547C397.775 348.541 400.107 347.912 402.163 346.723C404.218 345.533 405.925 343.824 407.113 341.767C408.3 339.711 408.927 337.378 408.93 335.003V159.513C408.903 154.475 407.544 149.533 404.99 145.19C402.437 140.847 398.779 137.256 394.39 134.783Z" fill="#DCE8FF"/>
<path d="M128.779 288.108V196.908L55.8393 154.808C53.7722 153.609 51.4256 152.978 49.0364 152.977C46.6471 152.975 44.2999 153.604 42.2315 154.8C40.1632 155.996 38.447 157.717 37.2561 159.788C36.0653 161.86 35.4421 164.208 35.4493 166.598V341.998C35.4503 347.032 36.7783 351.977 39.2994 356.334C41.8204 360.692 45.4455 364.307 49.8093 366.818L201.719 454.558C203.759 455.745 206.073 456.38 208.433 456.399C210.793 456.418 213.117 455.821 215.175 454.666C217.234 453.512 218.955 451.84 220.17 449.816C221.384 447.793 222.049 445.487 222.099 443.128V358.928L143.099 313.288C138.682 310.751 135.024 307.078 132.506 302.65C129.988 298.222 128.701 293.201 128.779 288.108Z" fill="#508AFF"/>
<path d="M222.1 234.222V143.002L149.16 100.902C147.094 99.6967 144.747 99.0593 142.355 99.0547C139.964 99.0501 137.614 99.6785 135.544 100.876C133.474 102.073 131.758 103.797 130.57 105.873C129.382 107.948 128.764 110.301 128.78 112.692V196.882L207.78 242.522C212.148 245.026 215.776 248.641 218.296 253C220.816 257.359 222.139 262.307 222.13 267.342V358.542L295 400.672C297.066 401.877 299.414 402.514 301.805 402.518C304.197 402.522 306.547 401.894 308.617 400.697C310.688 399.5 312.405 397.776 313.594 395.701C314.784 393.626 315.403 391.274 315.39 388.882V304.682L236.37 259.002C232.017 256.497 228.404 252.886 225.898 248.534C223.392 244.182 222.081 239.244 222.1 234.222Z" fill="#96B9FF"/>
<path d="M301.34 188.671L222.34 143.031V234.221C222.321 239.247 223.634 244.188 226.146 248.541C228.658 252.894 232.279 256.503 236.64 259.001L315.69 304.641V213.491C315.691 208.458 314.365 203.513 311.846 199.156C309.326 194.798 305.703 191.182 301.34 188.671Z" fill="#EFF5FF"/>
<path d="M207.75 242.546L128.75 196.906V288.106C128.732 293.132 130.042 298.074 132.548 302.431C135.054 306.788 138.666 310.405 143.02 312.916L222.02 358.566V267.366C222.037 262.339 220.727 257.396 218.221 253.038C215.715 248.68 212.103 245.061 207.75 242.546Z" fill="#B0CAFF"/>
</svg>
