<svg xmlns="http://www.w3.org/2000/svg" xmlns:xlink="http://www.w3.org/1999/xlink" width="512" zoomAndPan="magnify" viewBox="0 0 384 383.999986" height="512" preserveAspectRatio="xMidYMid meet" version="1.0"><defs><clipPath id="3a2e36cb19"><path d="M 25.667969 193 L 358.667969 193 L 358.667969 330 L 25.667969 330 Z M 25.667969 193 " clip-rule="nonzero"/></clipPath><clipPath id="24d7d75c8b"><path d="M 115.199219 58 L 173 58 L 173 168 L 115.199219 168 Z M 115.199219 58 " clip-rule="nonzero"/></clipPath><clipPath id="7e3341112a"><path d="M 217 71 L 268.949219 71 L 268.949219 167 L 217 167 Z M 217 71 " clip-rule="nonzero"/></clipPath></defs><g clip-path="url(#3a2e36cb19)"><path fill="#f97316" d="M 338.84375 242.164062 C 325.78125 229.886719 307.636719 219.195312 286.773438 210.914062 C 282.074219 209.046875 282.015625 209.203125 282.015625 209.203125 C 280.03125 208.488281 277.820312 208.894531 276.21875 210.273438 C 274.628906 211.648438 273.894531 213.78125 274.316406 215.851562 C 274.316406 215.851562 274.496094 215.757812 275.183594 220.191406 C 277.375 234.214844 277.042969 244.136719 277.035156 248.984375 C 277.023438 260.300781 269.285156 263.625 267.964844 253.488281 C 265.230469 234.042969 251.453125 203.011719 251.453125 203.011719 C 250.777344 200.929688 248.996094 199.40625 246.832031 199.058594 C 246.832031 199.058594 238.480469 195.691406 222.492188 194.496094 C 205.3125 193.207031 195.742188 193.601562 194.683594 195.164062 C 193.628906 196.730469 193.386719 198.707031 194.050781 200.480469 C 194.050781 200.480469 198.238281 210.105469 200.382812 217.457031 C 205.25 234.160156 205.976562 246.140625 206.480469 251.601562 C 207.515625 262.867188 198.015625 265.34375 195.875 256.757812 C 191.96875 240.355469 186.089844 224.976562 178.796875 211.453125 C 175.433594 205.21875 169.898438 197.257812 169.898438 197.257812 C 168.660156 195.285156 166.375 194.238281 164.070312 194.585938 C 164.070312 194.585938 149.117188 196.351562 139.960938 198.234375 C 129.796875 200.316406 118.273438 204.015625 118.273438 204.015625 C 116.453125 204.503906 114.972656 205.835938 114.308594 207.601562 C 113.644531 209.375 113.875 211.351562 114.933594 212.917969 C 114.933594 212.917969 121.753906 222 125.691406 228.925781 C 134.355469 244.207031 137.835938 255.8125 139.578125 261.039062 C 143.160156 271.777344 134.203125 275.359375 132.414062 268.195312 C 124.90625 253.179688 114.800781 239.738281 104.074219 228.355469 C 99.222656 223.203125 92.289062 217.046875 92.289062 217.046875 C 90.519531 215.339844 87.851562 214.933594 85.648438 216.03125 C 85.648438 216.03125 78.03125 219.496094 72.816406 222.410156 C 62.171875 228.34375 52.792969 234.984375 45.152344 242.167969 C 14.238281 271.21875 19.390625 329.320312 65.761719 329.320312 C 112.132812 329.320312 191.996094 329.320312 191.996094 329.320312 C 191.996094 329.320312 271.859375 329.320312 318.230469 329.320312 C 364.605469 329.320312 369.757812 271.21875 338.84375 242.164062 Z M 338.84375 242.164062 " fill-opacity="1" fill-rule="nonzero"/></g><g clip-path="url(#24d7d75c8b)"><path fill="#f97316" d="M 115.96875 140.378906 C 116.175781 139.308594 116.464844 138.257812 116.828125 137.226562 C 118.851562 131.976562 121.824219 128.324219 126.5 123.933594 C 131.820312 119.320312 137.492188 115.1875 143.519531 111.546875 C 150.640625 107.019531 155.9375 102.902344 160.570312 97.046875 C 163.890625 92.519531 165.472656 88.71875 165.503906 83.589844 C 165.371094 81.269531 164.871094 79.03125 164 76.875 C 163.128906 74.722656 161.9375 72.765625 160.417969 71.003906 C 159.304688 69.675781 147.203125 58.933594 147.203125 58.933594 C 150.808594 58.34375 162.757812 67.683594 164.570312 69.375 C 169.09375 73.992188 171.238281 77.882812 172.113281 83.390625 C 172.777344 89.425781 171.328125 93.863281 167.84375 99.402344 C 163.316406 106.160156 157.71875 110.835938 149.976562 116.101562 C 144.558594 119.601562 139.457031 123.519531 134.679688 127.855469 C 131.203125 130.890625 128.601562 134.546875 126.878906 138.824219 C 126.570312 139.621094 126.347656 140.441406 126.214844 141.285156 C 125.660156 144.472656 125.988281 147.566406 127.195312 150.566406 C 130.785156 158.636719 131.722656 161.125 139.613281 166.996094 C 133.171875 171.613281 118.835938 155.121094 117.371094 152.285156 C 116.554688 150.414062 116.027344 148.464844 115.789062 146.4375 C 115.550781 144.410156 115.609375 142.390625 115.96875 140.378906 Z M 115.96875 140.378906 " fill-opacity="1" fill-rule="evenodd"/></g><path fill="#f97316" d="M 172.050781 134.511719 C 171.679688 131.882812 171.691406 129.253906 172.089844 126.632812 C 172.484375 124.007812 173.246094 121.492188 174.375 119.089844 C 179.730469 107.472656 188.664062 98.34375 198.773438 89.003906 C 204.945312 83.601562 210.589844 77.691406 215.703125 71.277344 C 219.820312 65.648438 222.539062 60.894531 223.789062 54.453125 C 224.03125 53.019531 224.132812 51.574219 224.097656 50.121094 C 224.066406 48.667969 223.894531 47.234375 223.589844 45.8125 C 223.285156 44.390625 222.847656 43.011719 222.277344 41.675781 C 221.710938 40.335938 221.023438 39.0625 220.214844 37.855469 C 217.738281 34.039062 201.730469 19.492188 201.65625 19.070312 C 206.9375 18.769531 221.875 32.226562 224.890625 35.863281 C 229.417969 42.320312 231.121094 47.558594 230.683594 54.964844 C 229.839844 62.359375 227.199219 67.804688 222.871094 74.355469 C 217.851562 81.355469 212.183594 87.78125 205.863281 93.636719 C 196.976562 102.253906 188.710938 111.003906 184.09375 121.578125 C 183.230469 123.4375 182.648438 125.378906 182.34375 127.402344 C 182.039062 129.429688 182.023438 131.457031 182.296875 133.484375 C 182.601562 135.058594 183.101562 136.570312 183.804688 138.011719 C 190.023438 147.0625 196.101562 156.449219 205.277344 164.671875 C 179.023438 160.898438 176.382812 144.136719 174.074219 140.847656 C 173.082031 138.835938 172.40625 136.722656 172.050781 134.511719 Z M 172.050781 134.511719 " fill-opacity="1" fill-rule="evenodd"/><g clip-path="url(#7e3341112a)"><path fill="#f97316" d="M 218.839844 145.675781 C 218.183594 143.625 217.816406 141.519531 217.75 139.367188 C 217.679688 137.214844 217.90625 135.089844 218.433594 133 C 219.105469 130.699219 220.082031 128.53125 221.363281 126.503906 C 222.644531 124.472656 224.183594 122.660156 225.976562 121.066406 C 229.644531 117.730469 233.609375 114.792969 237.867188 112.253906 C 245.804688 107.367188 253.800781 103.203125 259.230469 96.867188 C 260.4375 95.449219 261.363281 93.867188 262.007812 92.121094 C 262.652344 90.375 262.972656 88.574219 262.972656 86.710938 C 262.972656 84.597656 259.050781 71.625 259.1875 71.367188 C 262.914062 72.074219 267.710938 83.890625 268.238281 86.53125 C 268.566406 88.6875 268.488281 90.828125 268.003906 92.953125 C 267.519531 95.078125 266.660156 97.042969 265.433594 98.84375 C 260.136719 106.386719 252.625 110.746094 244.082031 116.539062 C 240.429688 118.921875 237.042969 121.636719 233.929688 124.6875 C 231.210938 127.328125 229.375 130.480469 228.421875 134.148438 C 227.722656 137.582031 227.910156 140.964844 228.980469 144.304688 C 229.265625 145.253906 229.582031 146.171875 229.945312 147.109375 C 233.324219 154.488281 238.574219 159.179688 242.769531 166.046875 C 235.511719 170.570312 221.40625 151.816406 219.988281 148.90625 C 219.550781 147.847656 219.171875 146.777344 218.839844 145.675781 Z M 218.839844 145.675781 " fill-opacity="1" fill-rule="evenodd"/></g></svg>